<svg viewBox="0 0 32 32" fill="none" xmlns="http://www.w3.org/2000/svg">
<g clip-path="url(#clip0)">
<path d="M2.99996 4H27C27.3536 4 27.6927 4.14048 27.9428 4.39052C28.1928 4.64057 28.3333 4.97971 28.3333 5.33333V26.6667C28.3333 27.0203 28.1928 27.3594 27.9428 27.6095C27.6927 27.8595 27.3536 28 27 28H2.99996C2.64634 28 2.3072 27.8595 2.05715 27.6095C1.8071 27.3594 1.66663 27.0203 1.66663 26.6667V5.33333C1.66663 4.97971 1.8071 4.64057 2.05715 4.39052C2.3072 4.14048 2.64634 4 2.99996 4ZM25.6666 16H4.33329V25.3333H25.6666V16ZM25.6666 10.6667V6.66667H4.33329V10.6667H25.6666Z" fill="#09B238"/>
</g>
<defs>
<clipPath id="clip0">
<rect width="32" height="32" fill="white"/>
</clipPath>
</defs>
</svg>
