<svg viewBox="0 0 20 40" fill="none" xmlns="http://www.w3.org/2000/svg">
<path d="M19.6045 0.478016C20.1488 0.901715 19.2607 18.7356 19.2607 20.0356C19.3389 21.8472 19.3962 23.0918 19.3389 24.6277C19.3102 25.1044 19.4535 25.7483 19.3389 26.5957C19.2243 27.4166 19.5107 28.1316 19.3389 29.1379C19.3389 30.1923 19.5394 31.2251 19.3389 32.2578C19.167 33.2906 19.5107 34.2439 19.3389 35.1178C19.167 35.9917 19.4821 37.1665 19.3389 37.7756C19.2517 38.219 19.3983 39.0116 18.8775 38.9865C18.714 38.9786 18.8775 38.062 17.3775 38.1131C17.3202 38.2984 11.4565 37.9277 11.1987 38.1131C10.9409 38.2984 11.7462 37.9723 11.4598 38.1048C11.202 38.2107 11.4565 38.0601 11.1987 38.1131C10.9409 38.1395 11.6696 37.9875 11.6123 37.8551C11.555 37.7227 11.1701 36.4948 11.1987 35.7534C11.207 35.5387 11.4819 35.4634 11.8699 35.4383C12.8221 35.3769 15.2669 37.554 15.3076 36.7826C15.3649 35.6704 15.2503 33.062 15.3076 31.8174C15.3936 30.5463 15.4652 29.3546 15.5225 28.2424C15.5798 27.1302 15.637 26.1901 15.6943 25.4222C15.7516 24.6278 15.7803 24.1511 15.7803 23.9922C15.8089 23.1713 15.7373 22.4563 15.5654 21.8472C15.3936 21.2117 15.1071 20.8939 14.7061 20.8939C14.5628 20.8939 14.391 20.9601 14.1904 21.0925C13.9899 21.1984 13.7894 21.3308 13.5889 21.4897C13.417 21.6486 13.2451 21.8207 13.0732 22.0061C12.93 22.1915 12.8584 22.3636 12.8584 22.5225C12.8298 22.9992 12.7868 23.7009 12.7295 24.6278C12.7008 25.5546 12.6579 26.5741 12.6006 27.6863C12.5719 28.7985 12.529 29.9372 12.4717 31.1024C12.443 32.2676 12.4001 33.34 12.3428 34.3198C12.3141 35.2996 12.2855 36.1205 12.2568 36.7826C12.2282 37.4181 12.1995 37.7756 12.1709 37.8551C12.1136 37.961 11.9274 38.0404 11.6123 38.0934C11.3258 38.1199 10.9964 38.1199 10.624 38.0934C10.2516 38.0669 9.90788 38.0007 9.59277 37.8948C9.30632 37.7889 9.13444 37.6432 9.07715 37.4578C9.01986 37.3254 8.97689 36.9282 8.94824 36.2662C8.9196 35.5777 8.87663 34.7568 8.81934 33.8035C8.79069 32.8501 8.76204 31.8306 8.7334 30.7449C8.70475 29.6327 8.67611 28.5999 8.64746 27.6466C8.61882 26.6933 8.59017 25.8724 8.56152 25.1839C8.56152 24.4953 8.56152 24.0716 8.56152 23.9128C8.56152 23.2772 8.50423 22.7741 8.38965 22.4033C8.27507 22.0061 8.13184 21.7016 7.95996 21.4897C7.81673 21.2514 7.64486 21.1058 7.44434 21.0528C7.24382 20.9733 7.0433 20.9336 6.84277 20.9336C6.75684 20.9336 6.62793 20.9998 6.45606 21.1322C6.28418 21.2382 6.11231 21.4103 5.94043 21.6486C5.76856 21.8605 5.62533 22.112 5.51074 22.4033C5.39616 22.6681 5.35319 22.9594 5.38184 23.2772C5.38184 23.4096 5.39616 23.8995 5.42481 24.7469C5.45345 25.5943 5.46777 26.6138 5.46777 27.8055C5.49642 28.9971 5.52507 30.2815 5.55371 31.6585C5.58236 33.0355 5.59668 34.3198 5.59668 35.5115C5.62533 36.6767 5.63965 37.6697 5.63965 38.4906C5.63965 39.285 5.63965 39.7087 5.63965 39.7617C5.58236 39.8941 5.42481 39.9735 5.16699 40C4.90918 40 4.62272 39.9471 4.30762 39.8411C3.99251 39.7352 3.69173 39.5896 3.40527 39.4042C3.11882 39.1924 2.9183 38.9408 2.80371 38.6495C2.74642 38.4376 2.66048 37.9742 2.5459 37.2592C2.43132 36.5442 2.30241 35.6969 2.15918 34.717C2.01595 33.7108 1.87272 32.6383 1.72949 31.4996C1.58626 30.3344 1.44303 29.2222 1.29981 28.163C1.15658 27.0773 1.02767 26.0975 0.913087 25.2236C0.827149 24.3497 0.755535 23.6877 0.698243 23.2375C0.612306 22.6019 0.512045 21.9134 0.397462 21.172C0.311524 20.404 0.225587 19.6758 0.139649 18.9873C0.0823577 18.2723 0.039389 17.6632 0.0107431 17.1601C-0.0179027 16.6304 0.0107431 16.2994 0.0966806 16.167C0.153972 16.0611 0.354493 16.0214 0.698243 16.0478C1.07064 16.0743 1.45736 16.1538 1.8584 16.2862C2.28809 16.3921 2.68913 16.551 3.06152 16.7628C3.46257 16.9482 3.72038 17.1468 3.83496 17.3587C3.9209 17.5175 4.00684 17.7162 4.09277 17.9545C4.20736 18.1663 4.32194 18.5106 4.43652 18.9873C4.9235 18.643 5.42481 18.3252 5.94043 18.0339C6.45606 17.7162 6.97168 17.4778 7.48731 17.3189C8.00293 17.1336 8.48991 17.0409 8.94824 17.0409C9.43522 17.0144 9.89356 17.1336 10.3232 17.3984C10.6956 17.6632 11.2686 18.7669 11.6123 19.4289C11.8114 19.3254 15.0068 18.6694 15.9951 19.5734C15.8701 18.6851 15.7803 17.7121 15.7803 17.0409C15.9113 14.7565 16.2529 12.0334 16.2529 8.79792C16.5537 4.17575 15.9606 0.284851 16.5537 0.160241C17.8428 -0.131052 18.8597 -0.025127 19.6045 0.478016Z" fill="#3F6F9C"/>
</svg>
